<svg width="105" height="59" viewBox="0 0 105 59" fill="none" xmlns="http://www.w3.org/2000/svg">
<g clip-path="url(#clip0_755_1525)">
<path d="M70.9248 0C73.3727 1.62624 75.788 3.25248 78.2686 4.87872C76.245 8.1312 74.1561 11.3837 72.3283 14.7988C72.0998 14.6362 71.8387 14.5061 71.6102 14.3434C70.5984 13.5954 69.5213 12.8798 68.3789 12.3594C66.5511 11.5463 64.6581 10.9934 62.6671 11.0584C58.065 11.2211 54.6379 13.2701 52.4837 17.3357C51.6351 18.962 51.2434 20.7183 51.3413 22.5722C51.6351 26.9631 54.6379 30.3782 58.881 31.0612C61.4921 31.484 64.0053 31.0287 66.4206 30.0204C67.1387 29.7277 67.8241 29.4024 68.5421 29.0772C68.6401 29.0447 68.7053 29.0121 68.8685 28.9471C68.6401 29.4675 68.4769 29.9553 68.281 30.4107C67.2039 32.6224 66.1268 34.8341 65.0171 37.0458C64.6581 37.7938 64.2338 38.5419 63.8747 39.3225C63.7115 39.6803 63.4178 39.8754 63.0261 39.973C61.0678 40.4934 59.0768 40.8186 57.0205 40.8186C54.7684 40.8186 52.5816 40.4609 50.4601 39.6477C47.6531 38.6069 45.2705 36.9807 43.3447 34.704C41.5822 32.6224 40.4725 30.2155 39.9503 27.516C39.6892 26.1825 39.6565 24.849 39.7544 23.5154C39.9176 21.4338 40.4072 19.4173 41.2232 17.4983C42.2024 15.1566 43.5406 13.0099 45.1399 11.0584C47.4246 8.22878 50.2316 6.01709 53.5281 4.48842C55.7476 3.44763 58.065 2.76461 60.5129 2.43936C62.1122 2.21169 63.7115 2.08159 65.3435 2.11411C66.9102 2.14664 68.4442 2.30926 69.9783 2.60198C70.1741 2.63451 70.4026 2.66703 70.631 2.69956C70.8595 2.73208 70.9248 2.63451 70.9248 2.43936C70.9248 1.72381 70.9248 1.04079 70.9574 0.325248C70.9248 0.162624 70.9248 0.0975744 70.9248 0Z" fill="#0C4DA2"/>
<path d="M52.549 44.1036C35.2176 44.1036 17.8862 44.1036 0.554865 44.1036C0.130557 44.1036 -0.0326386 43.941 0.130557 43.4856C0.163196 43.4206 0.228474 43.388 0.293752 43.3555C0.39167 43.323 0.489587 43.3555 0.587504 43.3555C35.2502 43.3555 69.913 43.3555 104.576 43.3555C104.608 43.3555 104.608 43.3555 104.641 43.3555C104.772 43.388 105 43.388 105 43.4206C105.033 43.6157 105.033 43.8109 105 44.006C105 44.0385 104.902 44.0711 104.869 44.0711C104.772 44.0711 104.641 44.0711 104.543 44.0711C87.2117 44.1036 69.8803 44.1036 52.549 44.1036Z" fill="#0C4DA2"/>
<path d="M73.8623 51.2591C73.8623 51.3241 73.8297 51.3566 73.8297 51.4217C73.8623 52.9829 73.8949 54.5441 73.9276 56.1378C73.9276 56.8859 73.9276 57.6339 73.9276 58.382C73.9276 58.6097 73.8623 58.7072 73.6012 58.7072C73.1769 58.7072 72.7526 58.6747 72.2956 58.7072C72.0019 58.7072 71.9366 58.6422 71.9366 58.3495C71.9366 55.8451 71.9366 53.3732 71.9366 50.8688C71.9366 50.2833 71.9366 49.6979 71.9366 49.1124C71.9366 48.8847 72.0019 48.8197 72.2303 48.8197C72.7852 48.8197 73.3401 48.8197 73.8949 48.8197C74.0255 48.8197 74.1887 48.9173 74.254 49.0148C75.6248 50.8037 76.9956 52.5601 78.3339 54.3814C78.6602 54.8043 78.8887 55.3247 79.1498 55.78C79.2151 55.9101 79.2804 56.0402 79.3783 56.2354C79.4109 56.1378 79.4436 56.1053 79.4436 56.0402C79.4109 55.1295 79.3783 54.1863 79.3457 53.2756C79.3457 51.9096 79.3457 50.5435 79.3457 49.145C79.3457 48.9173 79.4109 48.8197 79.6721 48.8197C80.129 48.8522 80.6186 48.8197 81.0755 48.8197C81.2714 48.8197 81.3366 48.8847 81.3366 49.0799C81.3366 52.2023 81.3366 55.3247 81.3366 58.447C81.3366 58.6422 81.2714 58.7398 81.0755 58.7072C80.5533 58.7072 80.0311 58.7072 79.4762 58.7072C79.3457 58.7072 79.1825 58.6097 79.1172 58.5121C77.6811 56.6582 76.2449 54.8043 74.8415 52.9504C74.5151 52.5275 74.3192 52.0071 74.0255 51.5193C73.9929 51.4217 73.9276 51.3566 73.8949 51.2591H73.8623Z" fill="#0C4DA2"/>
<path d="M38.2531 52.3649C38.2531 53.4382 38.2857 54.5115 38.2531 55.5848C38.2204 56.6907 37.8288 57.6339 36.8822 58.2844C36.2947 58.6747 35.6093 58.9024 34.8912 58.9349C33.9447 59 32.9982 59 32.0843 58.7072C30.7134 58.2844 29.9954 57.3087 29.7995 55.9101C29.7669 55.5848 29.7343 55.2596 29.7343 54.9669C29.7343 53.0154 29.7343 51.0964 29.7343 49.1449C29.7343 48.8847 29.7995 48.7872 30.0933 48.7872C30.5176 48.8197 30.9745 48.8197 31.3988 48.7872C31.6926 48.7872 31.7905 48.8522 31.7905 49.1449C31.7905 50.9338 31.7579 52.7552 31.7905 54.5441C31.7905 55.0319 31.9211 55.5198 32.0516 55.9752C32.2475 56.5931 32.7371 56.9509 33.3898 57.0485C33.8141 57.1135 34.2384 57.1135 34.6301 57.0485C35.4787 56.9184 36.0662 56.2679 36.1968 55.3247C36.2294 55.0319 36.2621 54.7392 36.2621 54.4465C36.2621 52.6576 36.2621 50.8688 36.2621 49.1124C36.2621 48.8522 36.3274 48.7546 36.5885 48.7546C37.0128 48.7872 37.4697 48.7546 37.894 48.7546C38.2857 48.7546 38.2857 48.7546 38.2857 49.1449C38.2531 50.2508 38.2531 51.2916 38.2531 52.3649Z" fill="#0C4DA2"/>
<path d="M88.4194 56.2355C88.4846 56.3005 88.5173 56.3656 88.5499 56.3981C89.1374 57.3088 90.2798 57.634 91.259 57.1461C91.9117 56.8534 92.3034 55.8452 91.618 55.3248C91.1284 54.967 90.5735 54.6743 90.0513 54.349C89.4638 53.9912 88.8437 53.666 88.2888 53.2432C87.0812 52.2349 87.1464 50.446 88.3214 49.4052C89.4312 48.4295 92.0749 48.2018 93.1847 49.3727C93.3152 49.5028 93.4458 49.6654 93.609 49.8281C93.2173 50.2184 92.8256 50.5761 92.434 50.9664C92.3687 50.9014 92.3361 50.8689 92.3034 50.8038C91.7812 50.1858 91.0958 49.9907 90.3451 50.2184C89.4312 50.4786 89.1701 51.4543 89.8881 52.0723C90.2798 52.4301 90.802 52.6577 91.2916 52.8854C91.9444 53.1781 92.5645 53.5359 93.1194 53.9912C94.5229 55.2272 94.1965 57.6015 92.5972 58.4471C91.1611 59.1952 89.6923 59.1627 88.2562 58.3821C87.9624 58.2195 87.7013 57.9267 87.4728 57.6665C87.4076 57.6015 87.4075 57.4063 87.4402 57.3738C87.7339 56.9835 88.093 56.6258 88.4194 56.2355Z" fill="#0C4DA2"/>
<path d="M18.0494 56.2354C18.1147 56.3004 18.1473 56.3655 18.18 56.4305C18.6369 57.2762 19.8772 57.6014 20.8237 57.2111C21.6397 56.8533 21.8682 55.9101 21.1828 55.3247C20.8238 54.9994 20.3342 54.7717 19.9099 54.5115C19.2571 54.0887 18.539 53.7635 17.9189 53.2756C16.7112 52.2999 16.7439 50.4134 17.9515 49.4377C19.1918 48.4619 20.5953 48.3644 22.064 48.9173C22.4557 49.0474 22.7495 49.4377 23.1085 49.6979C23.1738 49.7304 23.1738 49.9255 23.1085 49.9906C22.7821 50.3158 22.4231 50.6411 22.064 50.9989C21.9661 50.9013 21.9008 50.8037 21.8356 50.7387C21.2807 50.0556 20.0404 49.9581 19.4203 50.576C18.996 50.9989 18.9633 51.5518 19.3876 52.0071C19.7793 52.43 20.3015 52.6902 20.8564 52.9178C21.6071 53.2431 22.2925 53.6009 22.88 54.1863C23.8592 55.162 23.8918 56.9509 22.9453 57.9267C22.2925 58.6097 21.4765 58.9349 20.53 59C19.5835 59.065 18.6696 58.9674 17.8862 58.447C17.5925 58.2519 17.3314 57.9592 17.0703 57.699C17.005 57.6339 17.005 57.4713 17.0376 57.4063C17.364 56.9834 17.6904 56.6257 18.0494 56.2354Z" fill="#0C4DA2"/>
<path d="M100.169 53.6985C100.169 52.1698 100.169 50.6737 100.169 49.145C100.169 48.8848 100.235 48.7872 100.528 48.7872C100.985 48.8198 101.442 48.8198 101.867 48.7872C102.16 48.7872 102.226 48.8848 102.226 49.145C102.226 51.9096 102.226 54.6742 102.226 57.4388C102.226 57.7641 102.226 58.0893 102.226 58.4146C102.226 58.6097 102.16 58.6748 101.965 58.6748C101.475 58.6748 100.985 58.6748 100.496 58.6748C100.235 58.6748 100.169 58.5772 100.169 58.3495C100.169 56.8209 100.169 55.2597 100.169 53.6985Z" fill="#0C4DA2"/>
<path d="M104.315 34.5088C104.315 23.6456 104.315 12.7823 104.315 1.91898C104.315 1.69131 104.315 1.52869 103.988 1.52869C97.95 1.52869 91.9444 1.52869 85.9061 1.52869C85.6777 1.52869 85.5145 1.59374 85.3839 1.78889C85.1881 2.11413 84.9922 2.47191 84.7964 2.79715C83.0992 5.59429 81.4019 8.3589 79.7047 11.156C79.5415 11.4488 79.3783 11.7415 79.1498 12.1318C80.129 12.1318 80.9776 12.1318 81.9568 12.1318C77.0936 21.4013 72.1324 30.5408 67.2366 39.8104C67.4324 39.8104 67.563 39.8104 67.6609 39.8104C71.6102 39.8104 75.5922 39.8104 79.5415 39.8104C79.8026 39.8104 79.9658 39.7128 80.0637 39.4851C81.0429 37.4361 82.0221 35.387 83.0013 33.3379C83.1645 32.9802 83.3603 32.8501 83.7846 32.8501C86.82 32.8826 89.8555 32.8501 92.8909 32.8826C93.3152 32.8826 93.3152 32.8826 93.3152 33.3054C93.3152 35.322 93.3152 37.3385 93.3152 39.355C93.3152 39.8104 93.3152 39.8104 93.7722 39.8104C97.1666 39.8104 100.561 39.8104 103.956 39.8104C104.217 39.8104 104.315 39.7453 104.315 39.4851C104.315 37.7938 104.315 36.1351 104.315 34.5088ZM92.9236 24.6538C91.6833 24.6538 90.443 24.6538 89.2353 24.6538C88.5825 24.6538 87.9624 24.6538 87.2117 24.6538C89.2353 20.4907 91.2263 16.425 93.2173 12.3269C93.2499 12.3269 93.2826 12.3269 93.3152 12.3594C93.3152 12.457 93.3479 12.5871 93.3479 12.6847C93.3479 16.5226 93.3479 20.3931 93.3479 24.231C93.3479 24.6213 93.3152 24.6538 92.9236 24.6538Z" fill="#0C4DA2"/>
<path d="M36.5558 1.52862C30.5828 1.52862 24.6099 1.52862 18.6369 1.52862C18.5716 1.52862 18.4737 1.49609 18.4085 1.52862C18.3105 1.56114 18.18 1.62619 18.1473 1.69124C17.723 2.37426 17.2987 3.08981 16.9071 3.77283C15.4057 6.21219 13.9369 8.65155 12.4355 11.0909C12.2397 11.3836 12.0765 11.7089 11.8806 12.0992C12.8272 12.0992 13.6758 12.0992 14.557 12.0992C14.5897 12.1317 14.6223 12.1642 14.6223 12.1642C9.82437 21.3687 4.86323 30.4757 0 39.7127C0.130556 39.7127 0.195835 39.7127 0.261113 39.7127C4.07989 39.7453 7.89866 39.7453 11.7501 39.7778C12.5661 39.7778 12.5987 39.7778 12.9577 39.0297C13.9043 37.0782 14.8834 35.0942 15.7973 33.1427C15.9279 32.9151 16.0258 32.8175 16.2869 32.8175C19.3876 32.8175 22.521 32.8175 25.6217 32.85C26.046 32.85 26.046 32.85 26.046 33.2728C26.046 35.3219 26.0134 37.371 26.0134 39.4525C26.0134 39.7453 26.0786 39.8103 26.3724 39.8103C29.5057 39.7778 32.6391 39.7778 35.7725 39.7778C36.0336 39.7778 36.2947 39.7778 36.5558 39.7778C37.0127 39.7778 37.0127 39.7778 37.0127 39.3224C37.0127 26.898 37.0127 14.4735 37.0127 2.04901C37.0127 1.52862 37.0127 1.52862 36.5558 1.52862ZM26.046 13.0424C26.046 14.6036 26.0134 16.1323 26.0134 17.6934C26.0134 19.8726 26.0134 22.0518 26.0134 24.2309C26.0134 24.6212 26.0134 24.6212 25.6217 24.6212C23.8265 24.6212 22.0314 24.5887 20.2362 24.5887C20.171 24.5887 20.1057 24.5887 19.9425 24.5562C21.9661 20.4255 23.9571 16.3274 25.9481 12.2293C25.9807 12.2293 26.0134 12.2618 26.0786 12.2618C26.046 12.522 26.046 12.7822 26.046 13.0424Z" fill="#0C4DA2"/>
<path d="M49.2851 54.2188C49.4483 54.1863 49.5462 54.1538 49.6441 54.1212C51.5372 53.6008 52.2226 51.0639 50.8191 49.6979C50.199 49.0799 49.383 48.8847 48.5344 48.8522C47.4246 48.8197 46.3149 48.8522 45.1725 48.8197C44.9114 48.8197 44.8788 48.9173 44.8788 49.145C44.8788 50.0231 44.8788 50.9013 44.8788 51.7795C44.8788 53.9586 44.8788 56.1703 44.8788 58.3495C44.8788 58.6422 44.9767 58.7398 45.2378 58.7072C45.6948 58.6747 46.1517 58.7072 46.576 58.7072C46.8371 58.7072 46.9024 58.6422 46.9024 58.382C46.9024 57.081 46.9024 55.8125 46.9024 54.5115C46.9024 54.414 46.9024 54.2839 46.935 54.1863C46.9677 54.1863 47.0003 54.1538 47.033 54.1538C47.1309 54.3164 47.2614 54.5115 47.3594 54.6742C48.0774 55.9426 48.7955 57.1786 49.4809 58.447C49.5788 58.6097 49.6767 58.6747 49.8726 58.6747C50.4927 58.6747 51.1129 58.6747 51.733 58.6747C51.7983 58.6747 51.8636 58.6422 51.9941 58.6422C51.0802 57.1461 50.199 55.715 49.2851 54.2188ZM48.1101 53.0154C47.8163 53.0479 47.4899 53.0154 47.1635 53.0479C47.0003 53.0479 46.935 52.9829 46.935 52.8202C46.935 52.4625 46.935 52.0722 46.935 51.7144C46.935 51.3566 46.935 50.9989 46.935 50.6411C46.935 50.4785 46.9677 50.3809 47.1635 50.3809C47.6205 50.4134 48.0774 50.4134 48.5017 50.511C49.4156 50.7061 49.7747 51.877 49.2198 52.6251C48.926 52.9504 48.5017 52.9829 48.1101 53.0154Z" fill="#0C4DA2"/>
<path d="M11.4563 56.9835C10.4445 54.349 9.40006 51.7145 8.38824 49.08C8.32297 48.8848 8.22505 48.7872 7.99657 48.7872C7.53963 48.7872 7.05004 48.7872 6.59309 48.7872C5.87503 48.7872 5.90767 48.7872 5.64656 49.4377C4.50419 52.3975 3.39446 55.3247 2.25209 58.2845C2.21945 58.382 2.18681 58.5121 2.15417 58.6097C2.25209 58.6422 2.28473 58.6422 2.35001 58.6422C2.93751 58.6422 3.55766 58.6422 4.14516 58.6422C4.24308 58.6422 4.37363 58.5122 4.40627 58.4146C4.60211 57.8942 4.7653 57.3413 4.9285 56.8209C4.99378 56.6582 5.05905 56.5607 5.25489 56.5932C6.39726 56.5932 7.53963 56.5932 8.68199 56.5932C8.87783 56.5932 8.97575 56.6582 9.04103 56.8534C9.20422 57.2762 9.36742 57.699 9.53061 58.1219C9.79172 58.7723 9.62853 58.6748 10.3466 58.6748C10.9015 58.6748 11.489 58.6748 12.1091 58.6748C11.8806 58.0893 11.6848 57.5364 11.4563 56.9835ZM5.64656 54.9669C6.13614 53.4708 6.59309 51.9747 7.0174 50.6086C7.47435 51.9747 7.9313 53.4383 8.42088 54.9669C7.50699 54.9669 6.59309 54.9669 5.64656 54.9669Z" fill="#0C4DA2"/>
<path d="M66.3553 58.2845C65.8331 56.9835 65.3435 55.6825 64.8213 54.349C64.1358 52.5601 63.4504 50.8038 62.765 49.0149C62.6997 48.8523 62.6018 48.7872 62.4386 48.7872C61.8511 48.7872 61.231 48.8198 60.6435 48.7872C60.3497 48.7872 60.2191 48.8848 60.1212 49.145C59.1094 51.8446 58.065 54.5441 57.0205 57.2437C56.8573 57.699 56.6941 58.1544 56.4983 58.6097C56.5636 58.6422 56.5962 58.6422 56.6288 58.6422C57.249 58.6422 57.8691 58.6422 58.5219 58.6422C58.6198 58.6422 58.7504 58.5122 58.783 58.4146C58.9789 57.8942 59.1421 57.3413 59.3053 56.8209C59.3705 56.6582 59.4358 56.5932 59.599 56.5932C60.774 56.5932 61.9164 56.5932 63.0914 56.5932C63.1893 56.5932 63.3525 56.6908 63.3851 56.7883C63.5483 57.1461 63.6789 57.5039 63.8094 57.8617C64.1358 58.6422 64.1358 58.6422 64.9845 58.6422C65.474 58.6422 65.931 58.6422 66.4859 58.6422C66.4532 58.5121 66.3879 58.4146 66.3553 58.2845ZM60.0233 54.9669C60.5129 53.4708 60.9698 51.9747 61.3942 50.6086C61.8511 51.9747 62.308 53.4383 62.7976 54.9669C61.8837 54.9669 60.9698 54.9669 60.0233 54.9669Z" fill="#0C4DA2"/>
</g>
<defs>
<clipPath id="clip0_755_1525">
<rect width="105" height="59" fill="white"/>
</clipPath>
</defs>
</svg>
