<svg width="568" height="172" viewBox="0 0 568 172" fill="none" xmlns="http://www.w3.org/2000/svg">
<g clip-path="url(#clip0_504_2515)">
<path d="M288.416 171.481V134.19H292.721V171.481H288.416Z" fill="#009EDB"/>
<path d="M332.205 171.481H327.233L306.822 140.195H306.6C306.897 143.902 306.971 147.238 306.971 150.278V171.481H302.963V134.19H307.861L328.197 165.402H328.42C328.42 164.957 328.346 163.474 328.197 160.954C328.049 158.433 328.049 156.654 328.049 155.616V134.19H332.131V171.481H332.205Z" fill="#009EDB"/>
<path d="M363.526 161.547C363.526 164.809 362.339 167.404 359.964 169.257C357.588 171.111 354.323 172 350.241 172C345.788 172 342.448 171.407 339.999 170.295V166.143C341.557 166.811 343.19 167.33 345.045 167.7C346.827 168.071 348.608 168.293 350.389 168.293C353.284 168.293 355.436 167.7 356.921 166.662C358.405 165.55 359.073 164.068 359.073 162.066C359.073 160.805 358.85 159.693 358.256 158.878C357.737 158.062 356.846 157.321 355.659 156.58C354.471 155.912 352.616 155.097 350.092 154.207C346.604 152.947 344.155 151.464 342.67 149.833C341.186 148.128 340.444 145.904 340.444 143.161C340.444 140.269 341.483 137.971 343.635 136.266C345.788 134.561 348.682 133.745 352.245 133.745C355.956 133.745 359.37 134.412 362.487 135.747L361.151 139.528C358.108 138.268 355.065 137.6 352.17 137.6C349.87 137.6 348.088 138.119 346.752 139.083C345.491 140.047 344.823 141.455 344.823 143.161C344.823 144.421 345.045 145.533 345.565 146.349C346.01 147.164 346.827 147.905 347.94 148.647C349.053 149.314 350.835 150.055 353.135 150.945C357.069 152.354 359.741 153.836 361.225 155.468C362.784 156.95 363.526 159.026 363.526 161.547Z" fill="#009EDB"/>
<path d="M399.374 134.19V158.359C399.374 162.585 398.112 165.921 395.514 168.368C392.917 170.814 389.428 172 384.901 172C380.374 172 376.96 170.74 374.436 168.293C371.987 165.847 370.725 162.511 370.725 158.211V134.19H375.104V158.507C375.104 161.621 375.92 163.993 377.627 165.699C379.335 167.33 381.858 168.219 385.124 168.219C388.315 168.219 390.69 167.404 392.397 165.699C394.104 163.993 394.921 161.621 394.921 158.507V134.19H399.374Z" fill="#009EDB"/>
<path d="M413.624 155.986V171.481H409.319V134.19H419.562C424.163 134.19 427.503 135.08 429.73 136.785C431.956 138.564 432.995 141.159 432.995 144.718C432.995 149.685 430.472 152.947 425.499 154.726L435.667 171.481H430.546L421.491 155.986H413.624ZM413.624 152.28H419.562C422.605 152.28 424.905 151.686 426.316 150.426C427.726 149.24 428.468 147.386 428.468 144.94C428.468 142.493 427.726 140.714 426.241 139.602C424.757 138.49 422.456 137.971 419.265 137.971H413.624V152.28Z" fill="#009EDB"/>
<path d="M465.058 171.481L460.382 159.619H445.39L440.788 171.481H436.409L451.179 134.042H454.816L469.511 171.481H465.058ZM459.046 155.69L454.667 144.124C454.073 142.641 453.554 140.862 452.96 138.712C452.589 140.343 452.069 142.123 451.327 144.124L446.948 155.69H459.046Z" fill="#009EDB"/>
<path d="M503.875 171.481H498.902L478.492 140.195H478.269C478.566 143.902 478.714 147.238 478.714 150.278V171.481H474.707V134.19H479.605L499.941 165.402H500.164C500.164 164.957 500.09 163.474 499.941 160.954C499.793 158.433 499.793 156.654 499.793 155.616V134.19H503.875V171.481Z" fill="#009EDB"/>
<path d="M530.148 137.526C526.066 137.526 522.8 138.861 520.425 141.604C518.05 144.347 516.863 148.054 516.863 152.798C516.863 157.692 518.05 161.473 520.277 164.142C522.578 166.811 525.843 168.145 530.074 168.145C532.672 168.145 535.64 167.7 538.98 166.736V170.517C536.383 171.481 533.191 172 529.406 172C523.914 172 519.683 170.295 516.64 167.033C513.671 163.697 512.187 158.952 512.187 152.798C512.187 148.943 512.929 145.607 514.339 142.716C515.75 139.824 517.828 137.6 520.574 136.043C523.246 134.486 526.437 133.671 530.148 133.671C534.082 133.671 537.496 134.412 540.39 135.821L538.535 139.528C535.789 138.193 532.968 137.526 530.148 137.526Z" fill="#009EDB"/>
<path d="M568 171.481H547.145V134.19H568V138.045H551.523V150.055H567.035V153.911H551.523V167.626H568V171.481Z" fill="#009EDB"/>
<path d="M37.5549 113.802L19.8908 51.8224H19.3712C20.1876 62.35 20.633 70.5793 20.633 76.4362V113.802H0V27.8017H31.0237L48.9847 88.8172H49.43L67.02 27.7275H98.0436V113.802H76.6685V76.0655C76.6685 74.0637 76.6685 71.9137 76.7427 69.5413C76.8169 67.1689 77.0396 61.312 77.5591 51.9706H77.0396L59.6723 113.802H37.5549Z" fill="#009EDB"/>
<path d="M169.517 113.802L165.287 97.6398H137.306L132.927 113.802H107.396L135.45 27.4312H166.474L194.9 113.802H169.517ZM160.388 78.5863L156.677 64.5001C155.786 61.3863 154.747 57.3087 153.486 52.3415C152.224 47.3743 151.408 43.8156 151.036 41.5915C150.665 43.5932 149.997 46.8553 148.958 51.4518C147.919 56.0484 145.618 65.0932 142.056 78.5863H160.388Z" fill="#009EDB"/>
<path d="M288.416 113.802V27.8018H311.795V113.876H288.416V113.802Z" fill="#009EDB"/>
<path d="M357.366 113.802L339.776 51.8224H339.256C340.073 62.35 340.518 70.5793 340.518 76.4362V113.802H319.885V27.8018H350.909L368.87 88.8914H369.315L386.905 27.8018H417.929V113.876H396.554V76.1397C396.554 74.138 396.554 71.988 396.628 69.6156C396.702 67.2431 396.925 61.3862 397.444 52.0449H396.925L379.558 113.876H357.366V113.802Z" fill="#009EDB"/>
<path d="M499.199 27.8018V79.55C499.199 90.819 496.007 99.5673 489.624 105.721C483.242 111.874 474.038 114.988 462.015 114.988C450.288 114.988 441.234 112.022 434.925 106.017C428.616 100.012 425.499 91.4121 425.499 80.1431V27.8018H448.878V78.2897C448.878 84.369 449.991 88.8173 452.292 91.5604C454.593 94.3035 457.933 95.7121 462.386 95.7121C467.136 95.7121 470.55 94.3776 472.702 91.6345C474.855 88.8914 475.894 84.4431 475.894 78.2156V27.8018H499.199Z" fill="#009EDB"/>
<path d="M567.035 87.705C567.035 93.0429 565.699 97.7877 562.953 101.939C560.207 106.091 556.348 109.279 551.226 111.577C546.105 113.876 540.168 115.062 533.265 115.062C527.55 115.062 522.726 114.691 518.793 113.876C514.933 113.06 510.851 111.652 506.621 109.65V88.9653C511.074 91.2636 515.675 93.0429 520.5 94.3032C525.25 95.5636 529.703 96.2308 533.711 96.2308C537.199 96.2308 539.722 95.6377 541.281 94.4515C542.914 93.2653 543.73 91.7084 543.73 89.855C543.73 88.6688 543.433 87.6308 542.765 86.7412C542.097 85.8515 541.058 84.9619 539.648 84.0722C538.238 83.1826 534.379 81.3291 528.218 78.5119C522.578 75.9912 518.421 73.4705 515.601 71.0981C512.781 68.7257 510.703 65.9826 509.367 62.8688C508.031 59.755 507.289 56.1222 507.289 51.8964C507.289 43.9636 510.183 37.8101 515.972 33.3619C521.761 28.9136 529.703 26.6895 539.797 26.6895C548.703 26.6895 557.832 28.7653 567.109 32.8429L559.984 50.7843C551.894 47.0774 544.992 45.2239 539.129 45.2239C536.086 45.2239 533.933 45.7429 532.523 46.7808C531.187 47.8188 530.445 49.1532 530.445 50.7101C530.445 52.4153 531.336 53.8981 533.043 55.2326C534.75 56.567 539.5 59.0136 547.293 62.4981C554.715 65.8343 559.836 69.3929 562.73 73.2481C565.625 77.0291 567.035 81.8481 567.035 87.705Z" fill="#009EDB"/>
<path d="M279.881 113.802H252.865L194.9 27.8018H221.916L279.881 113.802Z" fill="#009EDB"/>
<path d="M194.9 113.802H221.916L279.881 27.8018H252.865L194.9 113.802Z" fill="#009EDB"/>
<path d="M200.466 141.529H204.029L299.401 0H295.838L200.466 141.529Z" fill="#009EDB"/>
</g>
<defs>
<clipPath id="clip0_504_2515">
<rect width="568" height="172" fill="white"/>
</clipPath>
</defs>
</svg>
