<svg width="148" height="82" viewBox="0 0 148 82" fill="none" xmlns="http://www.w3.org/2000/svg">
<g clip-path="url(#clip0_1177_281)">
<path d="M146.724 9.12365C141.397 5.7543 135.882 2.80139 129.579 1.43851C123.765 0.189205 117.95 -0.41652 112.022 0.302778C106.47 0.984219 102.493 2.15781 99.7544 3.02854C97.766 3.67212 96.0778 4.35356 94.202 5.45144C92.5138 6.43574 91.2383 7.4579 90.3754 8.21506C98.8915 3.70998 107.97 1.6278 117.499 2.15781C126.991 2.68782 135.882 5.41358 143.723 11.3194C142.372 13.2123 141.134 14.9537 139.971 16.5816C139.334 16.1652 138.471 15.5595 137.383 14.9159C136.445 14.3859 132.543 12.1901 126.728 10.7515C124.215 10.1458 117.987 8.59364 110.296 9.72937C107.558 10.1458 104.782 10.6758 102.118 11.5465C99.9045 12.2658 97.8036 13.4773 95.7027 14.5752C94.127 15.4459 92.5889 16.3923 91.1633 17.4902C89.7377 18.5881 89.7752 19.4588 90.8256 20.9731C92.2512 22.9417 93.5268 24.9861 94.9899 26.9168C96.9407 29.4533 97.541 30.3997 100.617 28.2797C105.269 25.0618 110.596 23.5096 116.261 23.6232C119.788 23.6989 123.389 23.926 126.691 25.4404C128.379 26.1975 130.03 27.1061 131.793 28.0147C130.442 29.9454 129.092 31.8383 127.816 33.6176C126.203 32.8605 124.702 31.9898 123.127 31.5355C121.063 30.9297 119.488 30.854 118.062 30.7783C116.299 30.6647 113.823 30.5512 110.709 31.3462C108.871 31.8005 107.82 32.3305 105.682 33.4284C105.082 33.7312 103.131 34.6398 103.093 35.662C103.093 36.0027 103.168 36.3434 103.168 36.3434C103.318 36.9113 103.656 37.2899 103.806 37.4413C104.294 38.0092 105.194 39.1827 106.432 40.8106L107.895 39.5992C107.183 38.5013 106.47 37.3277 105.682 35.9648C107.333 35.397 108.908 34.7155 110.559 34.2991C116.336 32.8226 121.851 33.3148 126.803 37.0248C128.079 37.9713 128.867 37.782 129.805 36.5327C130.968 34.9805 132.093 33.3526 133.256 31.8005C133.856 31.0055 134.569 30.324 135.094 29.529C136.07 28.0525 136.032 26.614 134.832 25.8947C132.168 24.3425 129.542 22.7146 126.691 21.6167C124.29 20.7081 121.626 20.4053 119.038 20.0646C113.86 19.421 108.796 20.3296 103.919 22.071C102.531 22.5632 101.218 23.3582 99.942 24.1532C99.6043 24.3425 99.3042 24.6453 98.854 24.6453C98.1787 24.6075 97.766 23.8503 96.6031 22.0332C96.0778 21.1624 95.5901 20.4431 95.215 19.9131C97.9161 18.0959 101.818 15.9759 106.882 14.6509C111.684 13.4016 119.938 13.0609 127.704 15.1052C131.68 16.1652 135.394 18.2474 138.771 20.6324C138.996 20.7839 139.709 21.3139 140.459 21.1246C141.022 21.011 141.397 20.5946 141.772 20.1781C141.96 19.9888 142.072 19.8753 142.86 18.5502C142.86 18.5502 145.186 15.408 147.287 12.3794C148.375 10.8272 148.225 10.0701 146.724 9.12365Z" fill="#F6A315"/>
<path d="M41.0049 30.7025C40.5547 32.4439 40.142 34.0718 39.6919 35.6618C37.666 43.0441 35.6026 50.4264 33.5768 57.8087C33.3142 58.6794 33.2016 59.2094 32.939 59.4744H26.0736C28.0244 52.4329 29.9377 45.3534 31.8886 38.274C31.776 38.1983 31.6635 38.1605 31.5509 38.0847C31.2883 38.5012 30.9882 38.8798 30.7256 39.2962C27.2741 45.8077 23.7851 52.3193 20.3337 58.8687C20.2586 58.9823 20.1461 59.2094 19.921 59.4365H13.7684C13.5808 59.1715 13.5433 58.793 13.5433 58.2251C13.5058 57.0894 13.5808 56.1429 13.5808 55.6886C13.6183 55.1965 13.6183 54.7422 13.6183 54.25C13.8809 47.2842 13.8809 39.4098 13.8809 39.4098V37.9333C13.7309 37.9333 13.6183 37.8955 13.5058 37.8955C12.9431 39.9019 12.3428 41.9084 11.7801 43.9148C10.4295 48.8364 9.07892 53.7957 7.72835 58.7551C7.65332 59.058 7.54077 59.323 7.39071 59.4744H0.487793C1.23811 56.6729 1.95091 54.0986 2.6262 51.5621C4.42696 45.0506 6.1902 38.5012 8.02848 31.9896C8.17854 31.4596 8.74128 30.6646 9.11644 30.6268C12.718 30.5132 16.3195 30.551 19.846 30.551C19.8085 36.6461 19.7709 42.7413 19.7709 48.8364C20.2962 47.9278 20.6713 47.1706 20.8964 46.792C23.5225 41.7948 26.1861 36.8354 28.7747 31.8382C28.8498 31.6868 29.1124 31.0811 29.6751 30.7782C29.9377 30.6268 30.2379 30.5889 30.2379 30.5889C30.5755 30.5132 30.9507 30.5132 30.9507 30.5132L41.0049 30.7025Z" fill="#F6A315"/>
<path d="M64.4897 41.7191C65.0524 41.1133 65.9528 40.0912 66.553 38.5769C68.1287 34.5261 66.3654 31.3839 62.1637 30.7024C61.6009 30.6267 61.0382 30.6267 60.4755 30.6267C55.2983 30.6267 50.0836 30.6646 44.9064 30.5889C44.3436 30.5889 43.931 30.7024 43.6308 30.9296C43.1431 31.3082 42.9931 31.9139 42.9556 32.1032C42.693 33.2768 39.7292 44.2555 35.5649 59.5501H54.698C59.0874 59.0958 62.4638 56.8243 64.077 52.395C64.4521 51.3349 65.2025 48.8742 64.0395 46.7541C63.8519 46.4134 63.3267 45.467 62.2012 44.8234C61.4884 44.407 60.8131 44.2934 60.4004 44.2177C60.8881 44.1041 61.5634 43.877 62.2762 43.4984C63.4017 42.8927 64.077 42.1734 64.4897 41.7191ZM55.8985 50.5399C55.5234 52.0542 54.5855 53.19 53.1599 53.455C50.8714 53.8336 48.4704 53.8336 45.7317 53.985C46.3695 51.7135 46.8572 49.8206 47.4199 47.9656C47.495 47.7384 47.9452 47.5113 48.2078 47.5113C50.1961 47.5492 52.222 47.5113 54.1728 47.7385C55.7485 47.9277 56.2737 49.0256 55.8985 50.5399ZM57.8494 39.334C57.2491 41.1133 55.861 42.0976 53.6476 42.2491C53.0848 42.2869 52.5221 42.2491 51.9594 42.2491C48.9206 42.2491 48.9206 42.2491 49.7834 39.2583C50.6463 36.2297 50.6463 36.2297 53.8352 36.2675C54.5855 36.2675 55.3358 36.3054 56.0486 36.419C57.7743 36.6461 58.3746 37.7061 57.8494 39.334Z" fill="#F6A315"/>
<path d="M103.356 42.5519C103.206 44.6341 102.718 46.7163 102.193 48.7606C101.293 52.3571 100.242 55.8779 99.2295 59.4744H91.1636C91.8013 57.0893 92.4016 54.7421 93.0394 52.3949C93.452 50.8806 93.9397 49.4042 94.2774 47.8899C94.54 46.8298 94.8776 45.6941 93.8272 44.8612C92.6642 43.9527 91.3887 44.3312 90.3007 45.0505C88.6875 46.0727 88.1248 47.8141 87.6371 49.5556C86.6992 52.8492 85.7988 56.1429 84.8609 59.4365H76.8325C77.883 55.575 78.9334 51.7514 79.9838 47.9656C80.7342 45.202 81.5595 42.4383 82.2723 39.6747C82.4974 38.7661 82.9101 38.4633 83.8105 38.5011C85.7988 38.5768 87.8247 38.539 90.0006 38.539C89.738 39.6747 89.5504 40.5833 89.3253 41.7569C90.4508 40.9619 91.4262 40.2426 92.4016 39.599C94.6525 38.1604 97.1286 37.8954 99.6797 38.2361C101.968 38.5768 103.506 40.2804 103.356 42.5519Z" fill="#1A509D"/>
<path d="M146.312 38.8042C145.749 40.8485 145.261 42.6657 144.661 44.445C144.586 44.6722 143.836 44.7479 143.423 44.7479C140.122 44.8236 140.122 44.8236 139.296 48.0415C138.846 49.7451 138.358 51.4109 137.983 53.0766C137.645 54.5152 138.058 54.9695 139.559 54.8559C140.197 54.8181 140.834 54.7045 141.697 54.5909C141.397 56.3324 141.134 57.9603 140.797 59.5503C140.759 59.8153 140.309 60.1181 140.009 60.156C139.896 60.156 139.784 60.156 139.709 60.1939C137.383 60.3832 135.094 60.6103 132.768 60.5346C131.568 60.4967 130.668 60.1182 130.067 59.4746C129.467 58.831 129.204 57.8467 129.354 56.6352C129.767 53.5309 130.668 50.5023 131.343 47.4358C131.53 46.6029 131.755 45.8079 132.018 44.8615C131.043 44.7857 130.18 44.7479 129.129 44.6722C129.692 42.6278 130.18 40.7728 130.705 38.9178C133.706 38.6149 133.706 38.6149 134.569 35.7756C134.682 35.397 134.907 34.9049 135.207 34.7534C138.021 33.4284 140.872 32.1412 144.023 30.7026C143.273 33.542 142.598 36.0784 141.847 38.7663H146.312V38.8042Z" fill="#1A509D"/>
<path d="M80.2841 30.5889C80.2466 31.1946 80.2841 31.6489 80.134 32.0653C78.5959 37.6304 77.0577 43.1955 75.5196 48.7985C74.6567 51.9785 73.7563 55.1586 72.931 58.3386C72.8934 58.5279 72.7809 59.0958 72.3307 59.5501H63.8896C68.1665 44.0662 71.2052 32.9361 71.4303 31.9139C71.4678 31.7625 71.5804 31.1946 72.0306 30.8917C72.2932 30.7024 72.6308 30.6267 73.081 30.6267C75.407 30.6267 77.733 30.5889 80.2841 30.5889Z" fill="#F6A315"/>
<path d="M122.902 38.1604C118.1 36.9111 113.448 37.2897 109.096 39.9398H109.059C108.459 40.3183 107.633 40.8862 106.77 41.7569C106.433 42.0977 104.744 43.8391 103.469 46.792C103.019 47.8899 102.681 49.0635 102.418 50.5399C101.668 54.6286 103.694 58.3765 107.446 59.2851C107.708 59.3608 107.971 59.3987 108.233 59.4744C110.935 60.0423 113.673 60.0423 116.337 59.4744C117.2 59.2851 118.063 59.0579 118.888 58.7551C121.439 57.8844 123.465 56.1808 125.341 53.8336C121.477 53.455 119.413 53.2278 119.413 53.2278C119.413 53.2278 118.175 54.2122 116.787 54.8179C116.224 55.045 115.211 55.4615 113.936 55.3857C113.411 55.3479 112.623 55.31 111.76 54.7422C111.347 54.4772 110.409 53.8714 110.334 52.8114C110.259 51.9785 110.822 51.3728 110.86 51.2971C111.31 50.8049 111.947 50.6535 112.323 50.6157C115.924 50.0478 125.603 50.6157 125.641 50.6535C125.641 50.6535 125.678 50.6535 125.716 50.6535C125.903 50.6535 126.316 50.6535 126.691 50.5021C127.554 50.1992 127.817 45.1263 127.817 45.1263C127.817 45.1263 127.892 44.7477 127.892 44.1798C127.929 42.5898 127.366 39.334 122.902 38.1604ZM119.751 45.1641C119.563 45.8077 118.85 46.6784 118.325 46.7542C116.187 46.9434 114.048 46.8299 111.797 46.8299C112.773 43.1955 115.737 41.7191 118.85 43.082C119.788 43.4984 120.013 44.407 119.751 45.1641Z" fill="#1A509D"/>
<path d="M8.06567 76.7754V76.359C9.15362 76.2454 9.19114 76.1697 9.19114 74.6554V68.8631C8.10318 71.4753 6.45248 75.299 5.88975 76.7754H5.51459C4.98937 75.299 3.56376 71.5889 2.51332 69.0146C2.28823 73.9361 2.28823 75.034 2.28823 75.3368C2.28823 76.1318 2.62587 76.2454 3.56376 76.359V76.7754H0.337402V76.359C1.12523 76.2833 1.46288 76.094 1.57542 75.299C1.65046 74.6932 1.68797 74.1254 2.02562 69.0146C2.06313 68.2953 1.95058 67.9924 0.750077 67.8788V67.4624H3.22612L6.15236 74.5418L9.26617 67.4624H11.7422V67.8788C10.5792 68.0303 10.4292 68.1438 10.4667 69.166L10.5417 74.6554C10.5792 76.1318 10.6167 76.2076 11.8172 76.359V76.7754H8.06567Z" fill="#1A509D"/>
<path d="M17.0693 76.965C16.8442 76.965 16.5441 76.8514 16.394 76.7C16.2064 76.5107 16.1314 76.3214 16.0564 76.0942C15.5311 76.4728 14.8559 77.0028 14.4807 77.0028C13.4678 77.0028 12.7925 76.1321 12.7925 75.2235C12.7925 74.5042 13.1676 74.0878 13.8804 73.7849C14.7058 73.482 15.7187 73.1035 16.0188 72.8385V72.4977C16.0188 71.5134 15.5687 70.9834 14.8934 70.9834C14.5932 70.9834 14.4057 71.1349 14.2556 71.3241C14.1055 71.5134 14.0305 71.8542 13.8804 72.2706C13.8054 72.5356 13.6553 72.6113 13.4678 72.6113C13.2052 72.6113 12.83 72.3085 12.83 71.9677C12.83 71.7406 13.0176 71.5892 13.2802 71.362C13.7304 71.0213 14.5182 70.5291 15.2685 70.3398C15.6812 70.3398 16.1314 70.4534 16.469 70.7184C16.9567 71.1349 17.1818 71.6649 17.1818 72.3842V75.1099C17.1818 75.7914 17.4069 75.9807 17.632 75.9807C17.7821 75.9807 17.9697 75.9049 18.1197 75.8292L18.2698 76.2457L17.0693 76.965ZM16.0564 73.3306C15.7562 73.482 15.1935 73.747 14.8934 73.8985C14.4057 74.1256 14.1055 74.3906 14.1055 74.9206C14.1055 75.6778 14.6308 76.0185 15.0434 76.0185C15.3811 76.0185 15.7937 75.8292 16.0564 75.5642C16.0564 74.9206 16.0564 74.012 16.0564 73.3306Z" fill="#1A509D"/>
<path d="M22.059 76.7754H18.8701V76.359C19.6955 76.2833 19.7705 76.2076 19.7705 75.299V72.3082C19.7705 71.3996 19.733 71.3618 18.9451 71.2482V70.8696C19.658 70.7561 20.2957 70.5668 20.971 70.3018C20.971 70.7561 20.971 71.3996 20.971 71.8539C21.4587 71.0589 22.0214 70.3396 22.6967 70.3396C23.1844 70.3396 23.4846 70.6803 23.4846 71.0589C23.4846 71.4375 23.222 71.7782 22.9969 71.9296C22.8468 72.0054 22.7342 72.0054 22.6217 71.8918C22.3966 71.6646 22.2465 71.5132 22.0214 71.5132C21.7588 71.5132 21.2711 71.9296 21.0085 72.6111V75.299C21.0085 76.2454 21.0836 76.2833 22.0965 76.3969V76.7754H22.059Z" fill="#1A509D"/>
<path d="M26.6737 76.7756C26.4486 76.8891 26.2235 76.9649 26.111 76.9649C25.2106 76.9649 24.7229 76.397 24.7229 75.2234V71.0969H23.785L23.71 70.9076L24.0851 70.4533H24.6854V69.2797C24.9855 68.9769 25.4357 68.5983 25.7358 68.2954L25.9234 68.3333C25.8859 68.9011 25.8859 69.6962 25.8859 70.4533H27.3865C27.4991 70.6047 27.4615 70.9455 27.3115 71.059H25.8859V74.6934C25.8859 75.8291 26.3361 76.0563 26.6737 76.0563C26.9738 76.0563 27.274 75.9427 27.4615 75.8291L27.5741 76.2455L26.6737 76.7756Z" fill="#1A509D"/>
<path d="M32.5634 76.965C32.3383 76.965 32.0382 76.8514 31.8881 76.7C31.7006 76.5107 31.6255 76.3214 31.5505 76.0942C31.0253 76.4728 30.35 77.0028 29.9748 77.0028C28.9619 77.0028 28.2866 76.1321 28.2866 75.2235C28.2866 74.5042 28.6618 74.0878 29.3746 73.7849C30.1999 73.482 31.2129 73.1035 31.513 72.8385V72.4977C31.513 71.5134 31.0628 70.9834 30.3875 70.9834C30.0874 70.9834 29.8998 71.1349 29.7497 71.3241C29.5997 71.5134 29.5246 71.8542 29.3746 72.2706C29.2995 72.5356 29.1495 72.6113 28.9619 72.6113C28.6993 72.6113 28.3241 72.3085 28.3241 71.9677C28.3241 71.7406 28.5117 71.5892 28.7743 71.362C29.2245 71.0213 30.0123 70.5291 30.7627 70.3398C31.1753 70.3398 31.6255 70.4534 31.9632 70.7184C32.4509 71.1349 32.676 71.6649 32.676 72.3842V75.1099C32.676 75.7914 32.9011 75.9807 33.1262 75.9807C33.2762 75.9807 33.4638 75.9049 33.6139 75.8292L33.7639 76.2457L32.5634 76.965ZM31.513 73.3306C31.2129 73.482 30.6501 73.747 30.35 73.8985C29.8623 74.1256 29.5622 74.3906 29.5622 74.9206C29.5622 75.6778 30.0874 76.0185 30.5001 76.0185C30.8377 76.0185 31.2504 75.8292 31.513 75.5642C31.513 74.9206 31.513 74.012 31.513 73.3306Z" fill="#1A509D"/>
<path d="M42.3553 71.7403C43.6684 71.9675 44.7188 72.6489 44.7188 74.0496C44.7188 74.9961 44.1936 75.7911 43.4058 76.2454C42.693 76.6618 41.9802 76.8132 41.0048 76.8132H37.5908V76.3968C38.7163 76.2832 38.7913 76.1697 38.7913 75.0339V69.3553C38.7913 68.1817 38.6413 68.0681 37.5908 67.9545V67.5381H41.2299C42.2428 67.5381 42.8806 67.7274 43.3307 68.0302C43.8185 68.371 44.1186 68.901 44.1186 69.6203C44.1936 70.9074 43.1432 71.5132 42.3553 71.7403ZM40.7422 71.551C42.2053 71.551 42.768 70.9453 42.768 69.7717C42.768 68.7117 42.1678 67.9924 40.9672 67.9924C40.5921 67.9924 40.367 68.0302 40.2169 68.1438C40.1044 68.2195 40.0669 68.371 40.0669 68.8253V71.551H40.7422ZM40.1044 74.9582C40.1044 75.9804 40.367 76.2454 41.3049 76.2454C42.3178 76.2454 43.2932 75.6397 43.2932 74.1632C43.2932 72.7246 42.3553 72.081 40.7422 72.081H40.1044V74.9582Z" fill="#1A509D"/>
<path d="M52.2968 76.4728C51.6215 76.5863 50.8712 76.7756 50.1209 76.9649C50.1209 76.7378 50.1209 76.2456 50.1209 75.867C49.4081 76.4728 48.8453 76.9649 48.095 76.9649C47.1571 76.9649 46.3693 76.3592 46.3693 74.8449V72.0434C46.3693 71.2863 46.2567 71.2105 45.9191 71.1348L45.5439 71.0591V70.6805C46.1442 70.6427 47.0821 70.5291 47.5698 70.4155C47.5323 70.9077 47.5323 71.5891 47.5323 72.5356V74.5042C47.5323 75.7156 48.1325 76.0563 48.6953 76.0563C49.183 76.0563 49.6332 75.8671 50.0834 75.4128V72.0434C50.0834 71.2863 49.9333 71.1727 49.4831 71.1348L49.0704 71.0591V70.6805C49.9333 70.6427 50.9087 70.4912 51.2839 70.4155V75.1856C51.2839 75.9049 51.3964 76.0185 51.8841 76.0563H52.2593V76.4728H52.2968Z" fill="#1A509D"/>
<path d="M57.3242 76.965C57.0991 76.965 56.7989 76.8514 56.6489 76.7C56.4613 76.5107 56.3863 76.3214 56.3112 76.0942C55.786 76.4728 55.1107 77.0028 54.7356 77.0028C53.7226 77.0028 53.0474 76.1321 53.0474 75.2235C53.0474 74.5042 53.4225 74.0878 54.1353 73.7849C54.9607 73.482 55.9736 73.1035 56.2737 72.8385V72.4977C56.2737 71.5134 55.8235 70.9834 55.1483 70.9834C54.8481 70.9834 54.6605 71.1349 54.5105 71.3241C54.3604 71.5134 54.2854 71.8542 54.1353 72.2706C54.0603 72.5356 53.9102 72.6113 53.7226 72.6113C53.46 72.6113 53.0849 72.3085 53.0849 71.9677C53.0849 71.7406 53.2725 71.5892 53.5351 71.362C53.9853 71.0213 54.7731 70.5291 55.5234 70.3398C55.9361 70.3398 56.3863 70.4534 56.7239 70.7184C57.2116 71.1349 57.4367 71.6649 57.4367 72.3842V75.1099C57.4367 75.7914 57.6618 75.9807 57.8869 75.9807C58.037 75.9807 58.2246 75.9049 58.3746 75.8292L58.5247 76.2457L57.3242 76.965ZM56.3112 73.3306C56.0111 73.482 55.4484 73.747 55.1483 73.8985C54.6605 74.1256 54.3604 74.3906 54.3604 74.9206C54.3604 75.6778 54.8856 76.0185 55.2983 76.0185C55.636 76.0185 56.0486 75.8292 56.3112 75.5642C56.3112 74.9206 56.3112 74.012 56.3112 73.3306Z" fill="#1A509D"/>
<path d="M62.989 76.7757V76.3593C63.7393 76.2835 63.8143 76.17 63.8143 75.1857V72.8006C63.8143 71.7785 63.4392 71.1727 62.6138 71.1727C62.0886 71.1727 61.6009 71.4756 61.1882 71.8542V75.2235C61.1882 76.2078 61.2632 76.2078 62.0136 76.3214V76.7378H59.0498V76.3214C59.9127 76.2078 59.9877 76.17 59.9877 75.2235V72.3085C59.9877 71.3999 59.8752 71.362 59.1999 71.2106V70.832C59.8752 70.7185 60.588 70.5292 61.1882 70.2642C61.1882 70.567 61.1882 71.0213 61.1882 71.362C61.4508 71.1727 61.7509 70.9456 62.0886 70.7185C62.4637 70.4534 62.8014 70.302 63.2141 70.302C64.302 70.302 64.9773 71.1349 64.9773 72.5356V75.2614C64.9773 76.2078 65.0523 76.2457 65.8027 76.3593V76.7757H62.989Z" fill="#1A509D"/>
<path d="M71.017 76.965C70.7919 76.965 70.4918 76.8514 70.3418 76.7C70.1542 76.5107 70.0791 76.3214 70.0041 76.0942C69.4789 76.4728 68.8036 77.0028 68.4284 77.0028C67.4155 77.0028 66.7402 76.1321 66.7402 75.2235C66.7402 74.5042 67.1154 74.0878 67.8282 73.7849C68.6535 73.482 69.6665 73.1035 69.9666 72.8385V72.4977C69.9666 71.5134 69.5164 70.9834 68.8411 70.9834C68.541 70.9834 68.3534 71.1349 68.2034 71.3241C68.0533 71.5134 67.9783 71.8542 67.8282 72.2706C67.7532 72.5356 67.6031 72.6113 67.4155 72.6113C67.1529 72.6113 66.7778 72.3085 66.7778 71.9677C66.7778 71.7406 66.9653 71.5892 67.2279 71.362C67.6781 71.0213 68.466 70.5291 69.2163 70.3398C69.629 70.3398 70.0791 70.4534 70.4168 70.7184C70.9045 71.1349 71.1296 71.6649 71.1296 72.3842V75.1099C71.1296 75.7914 71.3547 75.9807 71.5798 75.9807C71.7298 75.9807 71.9174 75.9049 72.0675 75.8292L72.2175 76.2457L71.017 76.965ZM69.9666 73.3306C69.6665 73.482 69.1037 73.747 68.8036 73.8985C68.3159 74.1256 68.0158 74.3906 68.0158 74.9206C68.0158 75.6778 68.541 76.0185 68.9537 76.0185C69.2913 76.0185 69.704 75.8292 69.9666 75.5642C69.9666 74.9206 69.9666 74.012 69.9666 73.3306Z" fill="#1A509D"/>
<path d="M76.082 76.7756V76.3592C77.17 76.2456 77.2825 76.1699 77.2825 74.9585V69.3177C77.2825 68.1062 77.17 68.0305 76.082 67.9169V67.5005H79.8336V67.9169C78.7457 68.0305 78.5956 68.1062 78.5956 69.3177V74.9585C78.5956 76.1699 78.7081 76.2456 79.8336 76.3592V76.7756H76.082Z" fill="#1A509D"/>
<path d="M84.7106 76.7757V76.3593C85.461 76.2835 85.536 76.17 85.536 75.1857V72.8006C85.536 71.7785 85.1608 71.1727 84.3355 71.1727C83.8103 71.1727 83.3226 71.4756 82.9099 71.8542V75.2235C82.9099 76.2078 82.9849 76.2078 83.7352 76.3214V76.7378H80.7715V76.3214C81.6343 76.2078 81.7094 76.17 81.7094 75.2235V72.3085C81.7094 71.3999 81.5968 71.362 80.9215 71.2106V70.832C81.5968 70.7185 82.3096 70.5292 82.9099 70.2642C82.9099 70.567 82.9099 71.0213 82.9099 71.362C83.1725 71.1727 83.4726 70.9456 83.8103 70.7185C84.1854 70.4534 84.5231 70.302 84.9357 70.302C86.0237 70.302 86.699 71.1349 86.699 72.5356V75.2614C86.699 76.2078 86.774 76.2457 87.5243 76.3593V76.7757H84.7106Z" fill="#1A509D"/>
<path d="M89.2873 70.4912V70.1126C89.2873 69.0904 89.6624 68.0304 90.4878 67.2733C90.9755 66.819 91.5007 66.5918 92.0259 66.5161C92.5136 66.5161 92.9263 66.7054 93.1514 66.9704C93.3015 67.1218 93.3015 67.3111 93.2264 67.5004C93.1889 67.6518 93.0388 67.879 92.8888 67.9926C92.7387 68.1061 92.6262 68.0683 92.4761 67.9547C92.2135 67.6897 91.8008 67.3111 91.3882 67.3111C90.4878 67.3111 90.4878 68.5604 90.4878 69.8097V70.4912H91.8759C91.9509 70.6048 91.8759 70.9833 91.7258 71.0969H90.4503V75.2234C90.4503 76.2456 90.6003 76.2456 91.5757 76.3591V76.7756H88.3118V76.3591C89.1372 76.2834 89.2497 76.2077 89.2497 75.2991V71.0969H88.3118L88.2368 70.9455L88.5369 70.4912H89.2873Z" fill="#1A509D"/>
<path d="M95.4401 70.3018C97.1659 70.3018 98.4414 71.7025 98.4414 73.5197C98.4414 75.829 96.8282 76.9647 95.4401 76.9647C93.5268 76.9647 92.4014 75.3747 92.4014 73.7468C92.4014 71.4375 94.0896 70.3018 95.4401 70.3018ZM95.2901 70.8318C94.5023 70.8318 93.7895 71.6268 93.7895 73.3304C93.7895 75.1476 94.5023 76.4726 95.5902 76.4726C96.378 76.4726 97.0533 75.8669 97.0533 73.8982C97.0158 72.1189 96.4156 70.8318 95.2901 70.8318Z" fill="#1A509D"/>
<path d="M102.568 76.7754H99.3794V76.359C100.205 76.2833 100.28 76.2076 100.28 75.299V72.3082C100.28 71.3996 100.242 71.3618 99.4544 71.2482V70.8696C100.167 70.7561 100.805 70.5668 101.48 70.3018C101.48 70.7561 101.48 71.3996 101.48 71.8539C101.968 71.0589 102.531 70.3396 103.206 70.3396C103.694 70.3396 103.994 70.6803 103.994 71.0589C103.994 71.4375 103.731 71.7782 103.506 71.9296C103.356 72.0054 103.244 72.0054 103.131 71.8918C102.906 71.6646 102.756 71.5132 102.531 71.5132C102.268 71.5132 101.78 71.9296 101.518 72.6111V75.299C101.518 76.2454 101.593 76.2833 102.606 76.3969V76.7754H102.568Z" fill="#1A509D"/>
<path d="M111.947 76.7757V76.3593C112.697 76.2835 112.81 76.2078 112.81 75.2235V72.8006C112.81 71.7406 112.435 71.1727 111.684 71.1727C111.197 71.1727 110.784 71.4378 110.259 71.8542C110.259 72.0435 110.296 72.1949 110.296 72.4599V75.2614C110.296 76.1321 110.409 76.2078 111.122 76.3214V76.7378H108.195V76.3214C108.983 76.2457 109.096 76.17 109.096 75.2614V72.7628C109.096 71.7028 108.758 71.1727 108.008 71.1727C107.52 71.1727 106.995 71.5135 106.582 71.8542V75.2614C106.582 76.17 106.657 76.2457 107.408 76.3214V76.7378H104.444V76.3214C105.307 76.2457 105.382 76.17 105.382 75.2614V72.3085C105.382 71.3999 105.344 71.3242 104.594 71.2106V70.832C105.269 70.7185 105.907 70.5292 106.582 70.2642C106.582 70.6049 106.582 71.0592 106.582 71.3999C106.882 71.1727 107.145 70.9456 107.558 70.6806C107.895 70.4534 108.233 70.302 108.646 70.302C109.321 70.302 109.846 70.7185 110.146 71.4756C110.521 71.1727 110.859 70.9456 111.197 70.6806C111.497 70.4913 111.872 70.302 112.285 70.302C113.373 70.302 114.01 71.097 114.01 72.5356V75.2992C114.01 76.2457 114.085 76.2835 114.836 76.3593V76.7757H111.947Z" fill="#1A509D"/>
<path d="M119.976 76.965C119.75 76.965 119.45 76.8514 119.3 76.7C119.113 76.5107 119.038 76.3214 118.963 76.0942C118.437 76.4728 117.762 77.0028 117.387 77.0028C116.374 77.0028 115.699 76.1321 115.699 75.2235C115.699 74.5042 116.074 74.0878 116.787 73.7849C117.612 73.482 118.625 73.1035 118.925 72.8385V72.4977C118.925 71.5134 118.475 70.9834 117.8 70.9834C117.499 70.9834 117.312 71.1349 117.162 71.3241C117.012 71.5134 116.937 71.8542 116.787 72.2706C116.712 72.5356 116.562 72.6113 116.374 72.6113C116.111 72.6113 115.736 72.3085 115.736 71.9677C115.736 71.7406 115.924 71.5892 116.186 71.362C116.637 71.0213 117.424 70.5291 118.175 70.3398C118.587 70.3398 119.038 70.4534 119.375 70.7184C119.863 71.1349 120.088 71.6649 120.088 72.3842V75.1099C120.088 75.7914 120.313 75.9807 120.538 75.9807C120.688 75.9807 120.876 75.9049 121.026 75.8292L121.176 76.2457L119.976 76.965ZM118.963 73.3306C118.662 73.482 118.1 73.747 117.8 73.8985C117.312 74.1256 117.012 74.3906 117.012 74.9206C117.012 75.6778 117.537 76.0185 117.95 76.0185C118.287 76.0185 118.7 75.8292 118.963 75.5642C118.963 74.9206 118.963 74.012 118.963 73.3306Z" fill="#1A509D"/>
<path d="M124.477 76.7756C124.252 76.8891 124.027 76.9649 123.915 76.9649C123.014 76.9649 122.527 76.397 122.527 75.2234V71.0969H121.589L121.514 70.9076L121.889 70.4533H122.489V69.2797C122.789 68.9769 123.239 68.5983 123.54 68.2954L123.727 68.3333C123.69 68.9011 123.69 69.6962 123.69 70.4533H125.19C125.303 70.6047 125.265 70.9455 125.115 71.059H123.69V74.6934C123.69 75.8291 124.14 76.0563 124.477 76.0563C124.778 76.0563 125.078 75.9427 125.265 75.8291L125.378 76.2455L124.477 76.7756Z" fill="#1A509D"/>
<path d="M125.94 76.7757V76.3593C126.766 76.2836 126.878 76.2078 126.878 75.2235V72.3085C126.878 71.3999 126.841 71.3621 126.053 71.2106V70.832C126.803 70.7185 127.479 70.5292 128.079 70.2642C128.079 70.8699 128.079 71.4756 128.079 72.0813V75.2235C128.079 76.2078 128.154 76.2836 129.017 76.3593V76.7757H125.94ZM127.366 68.977C126.953 68.977 126.616 68.5984 126.616 68.182C126.616 67.6898 126.991 67.3491 127.404 67.3491C127.816 67.3491 128.154 67.6898 128.154 68.182C128.154 68.5984 127.816 68.977 127.366 68.977Z" fill="#1A509D"/>
<path d="M136.37 76.7755C135.582 76.7755 134.757 76.7755 134.419 76.8134C134.344 76.6998 132.318 74.0498 132.243 73.9741C132.055 73.7469 131.98 73.6712 131.868 73.6712C131.83 73.6712 131.718 73.6712 131.643 73.7091V75.2991C131.643 76.2455 131.718 76.3213 132.581 76.397V76.8134H129.504V76.397C130.367 76.3213 130.442 76.2077 130.442 75.2991V68.5225C130.442 67.614 130.367 67.5761 129.542 67.4625V67.0839C130.292 67.0082 131.118 66.8189 131.643 66.5918C131.643 67.1975 131.643 67.8032 131.643 68.409V73.3683C132.018 73.2548 132.281 73.1033 132.506 72.8383C132.806 72.4976 133.331 71.854 133.556 71.5133C133.819 71.1347 133.706 70.9833 133.068 70.9454V70.529L135.882 70.4154V70.8319C134.944 70.9833 134.644 71.0969 134.081 71.7405C133.819 72.0055 133.293 72.6869 132.993 73.0655C133.293 73.4819 134.644 75.1855 135.094 75.6777C135.695 76.3213 135.882 76.397 136.445 76.4348V76.7755H136.37Z" fill="#1A509D"/>
<path d="M140.797 76.965C140.572 76.965 140.272 76.8514 140.122 76.7C139.934 76.5107 139.859 76.3214 139.784 76.0942C139.259 76.4728 138.583 77.0028 138.208 77.0028C137.195 77.0028 136.52 76.1321 136.52 75.2235C136.52 74.5042 136.895 74.0878 137.608 73.7849C138.433 73.482 139.446 73.1035 139.746 72.8385V72.4977C139.746 71.5134 139.296 70.9834 138.621 70.9834C138.321 70.9834 138.133 71.1349 137.983 71.3241C137.833 71.5134 137.758 71.8542 137.608 72.2706C137.533 72.5356 137.383 72.6113 137.195 72.6113C136.933 72.6113 136.558 72.3085 136.558 71.9677C136.558 71.7406 136.745 71.5892 137.008 71.362C137.458 71.0213 138.246 70.5291 138.996 70.3398C139.409 70.3398 139.859 70.4534 140.197 70.7184C140.684 71.1349 140.909 71.6649 140.909 72.3842V75.1099C140.909 75.7914 141.134 75.9807 141.36 75.9807C141.51 75.9807 141.697 75.9049 141.847 75.8292L141.997 76.2457L140.797 76.965ZM139.746 73.3306C139.446 73.482 138.884 73.747 138.583 73.8985C138.096 74.1256 137.796 74.3906 137.796 74.9206C137.796 75.6778 138.321 76.0185 138.733 76.0185C139.071 76.0185 139.484 75.8292 139.746 75.5642C139.746 74.9206 139.746 74.012 139.746 73.3306Z" fill="#1A509D"/>
<path d="M140.609 61.7837H0V64.8123H140.609V61.7837Z" fill="#1A509D"/>
</g>
<defs>
<clipPath id="clip0_1177_281">
<rect width="148" height="82" fill="white"/>
</clipPath>
</defs>
</svg>
