<svg width="1728" height="787" viewBox="0 0 1728 787" fill="none" xmlns="http://www.w3.org/2000/svg">
<path d="M867 364.301C834.677 317.115 797.09 239.13 731.129 244.241C706.755 246.296 687.251 266.003 683.408 289.767C678.065 322.542 689.541 352.524 699.043 384.218C711.625 422.895 727.681 460.385 743.447 498.008C760.372 541.716 786.562 589.35 777.086 637.247C767.4 683.959 713.888 697.686 676.88 673.895C613.867 620.623 529.928 500.537 474.39 444.103C457.123 427.979 428.564 429.534 414.456 450.532C402.085 469.554 403.69 494.873 408.244 515.607C421.8 571.883 453.175 660.538 456.096 715.153C459.623 752.644 430.433 774.09 396.505 777.725C329.28 783.074 249.263 709.515 203.595 665.043C167.851 628.421 136.107 587.111 106.89 543.797C52.5101 459.305 17.7396 379.186 61.3278 331.315C78.8316 311.977 110.944 298.962 138.371 304.626C191.777 313.189 216.94 363.115 226.152 412.62C235.444 456.407 236.76 500.721 228.258 544.693C202.411 683.564 88.86 724.058 5 599.678" stroke="#F8FAFC" stroke-width="18" stroke-miterlimit="10" stroke-linecap="round"/>
<path d="M1729 129.301C1696.68 82.1145 1659.09 4.12975 1593.13 9.24091C1568.76 11.2959 1549.25 31.0029 1545.41 54.7672C1540.06 87.5419 1551.54 117.524 1561.04 149.218C1573.62 187.895 1589.68 225.385 1605.45 263.008C1622.37 306.716 1648.56 354.35 1639.09 402.247C1629.4 448.959 1575.89 462.686 1538.88 438.895C1475.87 385.623 1391.93 265.537 1336.39 209.103C1319.12 192.979 1290.56 194.534 1276.46 215.532C1264.08 234.554 1265.69 259.873 1270.24 280.607C1283.8 336.883 1315.17 425.538 1318.1 480.153C1321.62 517.644 1292.43 539.09 1258.5 542.725C1191.28 548.074 1111.26 474.515 1065.6 430.043C1029.85 393.421 998.107 352.111 968.89 308.797C914.51 224.305 879.74 144.186 923.328 96.3151C940.832 76.977 972.944 63.962 1000.37 69.6264C1053.78 78.189 1078.94 128.115 1088.15 177.62C1097.44 221.407 1098.76 265.721 1090.26 309.693C1064.41 448.564 950.86 489.058 867 364.678" stroke="#F8FAFC" stroke-width="18" stroke-miterlimit="10" stroke-linecap="round"/>
</svg>
