<svg width="507" height="510" viewBox="0 0 507 510" fill="none" xmlns="http://www.w3.org/2000/svg">
<path d="M229.617 2.1414C251.349 -0.486869 262.215 -0.932068 315.187 2.1414C383.099 6.08157 437.999 22.6658 476.818 71.7561C512.132 116.415 506.699 143.998 506.699 162.387C506.699 180.776 498.795 208.444 491.759 238.569C491.759 238.569 479.227 296.066 467.31 331.826C458.093 359.483 440.145 401.441 440.145 401.441C440.145 401.441 423.731 437.434 406.189 455.294C387.75 474.068 373.628 481.595 349.143 492.071C326.083 501.938 311.669 504.683 286.664 507.833C260.89 511.08 245.971 510.341 220.11 507.833C190.399 504.952 172.771 503.626 145.406 492.071C120.869 481.71 106.017 469.742 88.3601 455.294C70.7029 440.845 39.4633 396.187 29.9556 379.112C20.4479 362.036 7.88977 331.547 2.79073 298.989C-1.81623 269.574 0.0739148 238.569 2.79073 222.807C5.50755 207.045 22.9765 161.052 46.2545 126.923C64.8817 99.6119 103.301 63.8753 103.301 63.8753C103.301 63.8753 139.574 33.0683 167.138 20.5303C190.217 10.0325 207.886 4.76967 229.617 2.1414Z" fill="#DBEAFE"/>
</svg>
