<svg width="80" height="80" viewBox="0 0 80 80" fill="none" xmlns="http://www.w3.org/2000/svg">
<path d="M42.0751 5.00001C41.2173 4.99965 40.3942 5.33844 39.7851 5.94251L39.7526 5.96751L18.3076 18.35L39.6976 39.725V39.7375L65.4051 65.43L70.3051 56.6075L52.6351 14.2075L44.3876 5.96501C44.0846 5.65853 43.7237 5.41538 43.3258 5.24971C42.9279 5.08404 42.5011 4.99916 42.0701 5.00001H42.0751Z" fill="#4FC3F7"/>
<path d="M18.3572 18.2998L5.9697 39.7123L5.9447 39.7448C5.64397 40.0466 5.40567 40.4047 5.24341 40.7986C5.08114 41.1925 4.9981 41.6146 4.99903 42.0406C4.99996 42.4667 5.08484 42.8883 5.24882 43.2816C5.4128 43.6748 5.65266 44.0318 5.9547 44.3323L5.9672 44.3448L16.2322 54.6123L56.3922 70.3973L65.4722 65.3598L65.2272 65.1148L65.1647 65.1198L39.9872 39.9248H39.9572L18.3572 18.2998Z" fill="#01579B"/>
<path d="M18.3027 18.3101L40.1852 40.1976H40.2177L65.4002 65.3901L74.9877 63.5651L75.0002 35.2226L64.8777 25.3101C62.3554 23.0585 59.1936 21.6497 55.8327 21.2801L55.8377 21.1726L18.3077 18.3126L18.3027 18.3101Z" fill="#01579B"/>
<path d="M18.3301 18.3374L40.2251 40.2124V40.2449L65.4226 65.4224L63.5901 74.9999H35.2251L25.3076 64.8799C23.0569 62.3573 21.649 59.1954 21.2801 55.8349L21.1676 55.8449L18.3301 18.3374Z" fill="#64B5F6"/>
</svg>
