<svg width="80" height="80" viewBox="0 0 80 80" fill="none" xmlns="http://www.w3.org/2000/svg">
<path d="M23.4134 7.70004C25.9178 8.54515 28.2996 9.71752 30.4968 11.1867C33.6018 10.392 36.795 9.99323 40.0001 10C43.3101 10 46.5034 10.4134 49.4968 11.1834C51.6931 9.71562 54.0737 8.54438 56.5768 7.70004C58.9001 6.91004 62.2101 5.63004 64.1768 7.80671C65.5101 9.28671 65.8434 11.7667 66.0801 13.66C66.3468 15.7734 66.4101 18.5267 65.7101 21.26C68.3868 24.7167 70.0001 28.84 70.0001 33.3334C70.0001 40.14 66.3134 46.05 60.8568 50.1434C58.2295 52.0865 55.3172 53.6112 52.2234 54.6634C52.9368 56.2967 53.3334 58.1034 53.3334 60V70C53.3334 70.8841 52.9823 71.7319 52.3571 72.3571C51.732 72.9822 50.8842 73.3334 50.0001 73.3334H30.0001C29.1161 73.3334 28.2682 72.9822 27.6431 72.3571C27.018 71.7319 26.6668 70.8841 26.6668 70V66.6967C23.4834 67.0867 20.8134 66.74 18.5434 65.7767C16.1701 64.77 14.5168 63.21 13.2734 61.7167C12.0934 60.3034 10.8068 57.1167 8.94678 56.4967C8.53136 56.3584 8.14726 56.1396 7.8164 55.8528C7.48555 55.5661 7.21441 55.2169 7.01848 54.8254C6.62278 54.0346 6.55742 53.119 6.83678 52.28C7.11614 51.4411 7.71734 50.7474 8.50812 50.3517C9.2989 49.956 10.2145 49.8907 11.0534 50.17C13.2734 50.91 14.7201 52.51 15.7101 53.7967C17.3101 55.8634 18.6101 58.5634 21.1434 59.64C22.1868 60.0834 23.7168 60.3734 26.1101 60.0467L26.6668 59.9334C26.6745 58.1195 27.0522 56.3263 27.7768 54.6634C24.683 53.6112 21.7708 52.0865 19.1434 50.1434C13.6868 46.05 10.0001 40.1434 10.0001 33.3334C10.0001 28.8467 11.6101 24.7267 14.2801 21.2734C13.5801 18.54 13.6401 15.78 13.9068 13.6634L13.9234 13.5367C14.1668 11.5967 14.4501 9.31338 15.8101 7.80671C17.7768 5.63004 21.0901 6.91338 23.4101 7.70338L23.4134 7.70004Z" fill="black"/>
</svg>
