<svg width="80" height="80" viewBox="0 0 80 80" fill="none" xmlns="http://www.w3.org/2000/svg">
<path d="M0.879883 0.879883H79.1199V79.1205H0.879883V0.879883Z" fill="#F0DB4F"/>
<path d="M72.7165 60.46C72.1434 56.8907 69.8159 53.8925 62.9215 51.0969C60.5265 49.9963 57.8565 49.2082 57.0609 47.3932C56.7784 46.3369 56.7409 45.7419 56.9196 45.1025C57.4327 43.0275 59.9096 42.3807 61.8727 42.9757C63.1371 43.3994 64.334 44.3738 65.0559 45.9282C68.4321 43.7419 68.4252 43.7563 70.7827 42.2538C69.9196 40.9157 69.459 40.2982 68.894 39.7257C66.8634 37.4575 64.0965 36.2894 59.6715 36.3788L57.3665 36.6769C55.1577 37.235 53.0527 38.3944 51.8184 39.9488C48.1146 44.1513 49.1709 51.5063 53.6777 54.5332C58.1177 57.8657 64.6402 58.6238 65.4734 61.74C66.284 65.555 62.6696 66.79 59.0771 66.3513C56.4296 65.8007 54.9571 64.455 53.3652 62.0082C50.4352 63.7038 50.4352 63.7038 47.4227 65.4363C48.1371 66.9982 48.8877 67.705 50.0852 69.0582C55.7527 74.8069 69.9352 74.5244 72.479 65.8232C72.5821 65.5244 73.2671 63.5319 72.7165 60.46ZM43.4134 36.8394H36.0952L36.0652 55.7594C36.0652 59.7832 36.2734 63.4719 35.619 64.6025C34.5484 66.8263 31.774 66.5507 30.5096 66.1194C29.2227 65.4869 28.5684 64.5875 27.8102 63.3163C27.6021 62.9513 27.4459 62.6688 27.3934 62.6469L21.4434 66.2907C22.4327 68.3213 23.8902 70.0838 25.7571 71.2288C28.5459 72.9025 32.294 73.4157 36.214 72.5157C38.7652 71.7725 40.9665 70.2332 42.119 67.89C43.7852 64.8182 43.4277 61.1 43.4127 56.9875C43.4502 50.2782 43.4134 43.57 43.4134 36.8394Z" fill="#323330"/>
</svg>
