<svg width="80" height="80" viewBox="0 0 80 80" fill="none" xmlns="http://www.w3.org/2000/svg">
<path d="M40 30C58.61 30 70 36.475 70 40C70 43.525 58.61 50 40 50C21.39 50 10 43.525 10 40C10 36.475 21.39 30 40 30ZM40 25C20.67 25 5 31.715 5 40C5 48.285 20.67 55 40 55C59.33 55 75 48.285 75 40C75 31.715 59.33 25 40 25Z" fill="#00BCD4"/>
<path d="M40 35C39.0111 35 38.0444 35.2932 37.2222 35.8427C36.3999 36.3921 35.759 37.173 35.3806 38.0866C35.0022 39.0002 34.9031 40.0055 35.0961 40.9755C35.289 41.9454 35.7652 42.8363 36.4645 43.5355C37.1637 44.2348 38.0546 44.711 39.0246 44.9039C39.9945 45.0969 40.9998 44.9978 41.9134 44.6194C42.8271 44.241 43.6079 43.6001 44.1574 42.7779C44.7068 41.9556 45 40.9889 45 40C45 38.6739 44.4732 37.4021 43.5355 36.4645C42.5979 35.5268 41.3261 35 40 35Z" fill="#00BCD4"/>
<path d="M26.1451 13.7676C31.1876 13.7676 40.9876 21.7101 48.6601 35.0001C57.9651 51.1176 58.0526 64.2176 55.0001 65.9801C54.648 66.1627 54.2538 66.2489 53.8576 66.2301C48.8151 66.2301 39.0126 58.2901 31.3401 45.0001C22.0351 28.8826 21.9476 15.7826 25.0001 14.0201C25.353 13.8371 25.748 13.7483 26.1451 13.7676ZM26.1426 8.77008C24.8685 8.74702 23.6112 9.06371 22.5001 9.68758C15.3251 13.8301 17.3451 30.7601 27.0101 47.5001C35.2201 61.7251 46.3101 71.2326 53.8601 71.2326C55.1338 71.2537 56.3902 70.9353 57.5001 70.3101C64.6751 66.1701 62.6551 49.2401 52.9901 32.5001C44.7801 18.2751 33.6901 8.76758 26.1401 8.76758L26.1426 8.77008Z" fill="#00BCD4"/>
<path d="M53.857 13.7676C54.2532 13.7488 54.6474 13.835 54.9995 14.0176C58.052 15.7826 57.9645 28.8826 48.6595 45.0001C40.9845 58.2901 31.1845 66.2326 26.142 66.2326C25.7458 66.2515 25.3517 66.1652 24.9995 65.9826C21.947 64.2151 22.0345 51.1151 31.3395 35.0001C39.0145 21.7101 48.8145 13.7676 53.857 13.7676ZM53.857 8.76763C46.307 8.76763 35.2195 18.2776 27.007 32.5001C17.347 49.2401 15.3245 66.1701 22.4995 70.3101C23.6102 70.9357 24.8675 71.2542 26.142 71.2326C33.692 71.2326 44.7795 61.7226 52.992 47.5001C62.652 30.7601 64.6745 13.8301 57.4995 9.69013C56.3889 9.06451 55.1316 8.7461 53.857 8.76763Z" fill="#00BCD4"/>
</svg>
