<svg width="71" height="72" viewBox="0 0 71 72" fill="none" xmlns="http://www.w3.org/2000/svg">
<path d="M27.3047 60.4492H67.4609V44.0703H27.3047V60.4492ZM3.51465 34.1768H43.6738V17.7988H3.51465V34.1768ZM49.0674 7.94043H56.5488V3.875H49.0674V7.94043ZM14.4688 7.92578H45.7432V3.86426H14.4688V7.92578ZM70.7529 62.5625L70.7285 62.6133C70.523 63.0439 70.2381 63.3385 69.877 63.5195C69.6105 63.6531 69.3141 63.7197 68.9971 63.7422L68.6738 63.751C65.9051 63.7164 63.1377 63.7383 60.3643 63.7383H59.8135C59.8109 65.5384 59.7838 67.2622 59.8291 68.9863V68.9873C59.8407 69.4332 59.7785 69.8397 59.6006 70.1953C59.4209 70.5545 59.1327 70.8421 58.7275 71.0645L58.6709 71.0957H12.3301L12.2744 71.0654C11.8643 70.8421 11.5812 70.5511 11.4053 70.1904C11.2317 69.8346 11.1709 69.4286 11.1719 68.9873C11.1938 58.6701 11.1865 48.353 11.1865 38.0352V37.4629C8.12628 37.463 5.15621 37.4647 2.18848 37.4629V37.4619C1.55924 37.4618 1.05448 37.3373 0.713867 36.9922C0.374008 36.6478 0.251018 36.1389 0.250977 35.5049C0.24915 29.1501 0.24915 22.7952 0.250977 16.4404L0.257812 16.2158C0.286422 15.7056 0.418544 15.2894 0.713867 14.9951C1.05117 14.659 1.54811 14.5342 2.16309 14.5332H11.1865V13.9814C11.1865 10.2208 11.2066 6.46629 11.1719 2.70898C11.168 2.2668 11.2281 1.85945 11.4023 1.50293C11.5789 1.14182 11.8634 0.851213 12.2744 0.628906L12.3301 0.598633H58.3555V0.420898L58.7246 0.62207C59.1349 0.845497 59.4186 1.13684 59.5947 1.49805C59.7685 1.85435 59.8291 2.26055 59.8271 2.70215C59.7998 8.26118 59.8125 13.8183 59.8125 19.3789C59.8125 19.5436 59.8214 19.7518 59.8018 19.9482C59.7213 20.8128 59.0624 21.4541 58.2119 21.4629C57.389 21.471 56.7168 20.8935 56.6025 20.0674L56.5879 19.8984C56.5565 19.1641 56.5762 18.4201 56.5762 17.7002V11.2656H14.4717V14.5283H44.8359C45.572 14.5283 46.1357 14.6256 46.499 14.9854C46.8629 15.3459 46.9609 15.9059 46.9609 16.6357V35.3643C46.9609 36.0779 46.8559 36.63 46.499 36.9912C46.1412 37.3533 45.5927 37.4609 44.8848 37.4609H14.4717V67.8174H56.5439V63.7344H26.2441C25.4547 63.7344 24.8634 63.6497 24.4932 63.2734C24.1244 62.8987 24.041 62.3016 24.041 61.501V42.8418C24.041 42.1568 24.1555 41.62 24.5146 41.2656C24.873 40.9123 25.4152 40.7998 26.1084 40.7998H56.5801V40.3027C56.5801 37.66 56.5766 35.0158 56.582 32.374C56.5821 31.9316 56.6767 31.5466 56.8799 31.2402C57.0852 30.9308 57.388 30.7224 57.7637 30.6113L57.9619 30.5645C58.4226 30.4863 58.8607 30.6154 59.1953 30.8984C59.5753 31.22 59.8074 31.7272 59.8105 32.3203C59.8215 34.9642 59.8145 37.6095 59.8145 40.25V40.8018H61.5244C63.8969 40.8018 66.2628 40.8272 68.6289 40.7871C69.0705 40.7794 69.477 40.841 69.835 41.0146C70.1966 41.1902 70.4914 41.4718 70.7207 41.874L70.7529 41.9316V62.5625Z" fill="#2563EB" stroke="#2563EB" stroke-width="0.5"/>
<path d="M57.3213 24.0479C58.3523 23.998 59.2292 24.8228 59.2539 25.8545C59.2783 26.8759 58.4352 27.7597 57.4102 27.7598C56.4206 27.7598 55.5931 26.9297 55.5684 25.9443C55.5437 24.952 56.3253 24.0955 57.3213 24.0479Z" fill="#2563EB" stroke="#2563EB"/>
<path d="M13.037 21.2676C14.5413 21.2676 16.0439 21.2621 17.5483 21.2694C18.6112 21.2748 19.1049 21.778 19.1085 22.8605C19.1157 24.8786 19.1157 26.8948 19.1085 28.9128C19.1049 30.0208 18.6022 30.5258 17.4888 30.5276C14.5269 30.533 11.565 30.533 8.60136 30.5276C7.48614 30.5258 6.97808 30.0226 6.97448 28.9201C6.96727 26.9021 6.96907 24.8858 6.97448 22.8678C6.97808 21.7562 7.46993 21.2712 8.59415 21.2676C10.0751 21.2621 11.556 21.2676 13.037 21.2676ZM16.3754 27.7739V24.0339H9.72017V27.7739H16.3754Z" fill="black"/>
<path d="M31.2604 23.99C29.1056 23.99 26.9527 23.99 24.7979 23.99C24.6178 23.99 24.4376 23.9973 24.2592 23.9864C23.4485 23.9319 22.8792 23.3525 22.8918 22.6005C22.9026 21.8394 23.4719 21.2836 24.3025 21.2727C25.5366 21.2563 26.7707 21.2672 28.0048 21.2672C31.1685 21.2672 34.3322 21.2672 37.4959 21.2672C38.9768 21.2672 39.62 21.6868 39.6038 22.6422C39.5875 23.5704 38.9408 23.99 37.5211 23.99C35.4348 23.99 33.3485 23.99 31.2604 23.99Z" fill="black"/>
<path d="M31.28 27.8085C33.5915 27.8085 35.903 27.7994 38.2127 27.8139C39.036 27.8194 39.6036 28.3952 39.6036 29.1599C39.6036 29.8864 39.0559 30.4568 38.283 30.524C38.1046 30.5385 37.9244 30.5313 37.7443 30.5313C33.4131 30.5313 29.0838 30.5313 24.7527 30.5313C24.6176 30.5313 24.4824 30.5349 24.3491 30.5313C23.4861 30.4967 22.8934 29.9391 22.8916 29.1653C22.8916 28.3788 23.4735 27.8175 24.3455 27.8139C26.657 27.803 28.9667 27.8103 31.2782 27.8121L31.28 27.8085Z" fill="black"/>
<path d="M36.4833 56.7054C34.979 56.7054 33.4764 56.7127 31.9721 56.7036C30.9505 56.6982 30.4461 56.1859 30.4407 55.1506C30.4317 53.1108 30.4335 51.0709 30.4407 49.0293C30.4443 47.9649 30.9577 47.4472 32.0207 47.4454C35.006 47.4381 37.9895 47.4381 40.9748 47.4454C42.072 47.4472 42.5711 47.9612 42.5747 49.0783C42.5801 51.0964 42.5819 53.1126 42.5747 55.1306C42.5711 56.2005 42.0666 56.6982 40.9946 56.7036C39.4903 56.7109 37.9877 56.7036 36.4833 56.7036V56.7054ZM33.1665 53.9318H39.8218V50.2045H33.1665V53.9318Z" fill="black"/>
<path d="M54.7075 50.168C52.4645 50.168 50.2197 50.1717 47.9766 50.168C46.9785 50.1662 46.3768 49.6649 46.3588 48.8402C46.3408 48.0011 46.9785 47.4471 47.9911 47.4471C52.4789 47.4434 56.9668 47.4434 61.4529 47.4471C62.4402 47.4471 63.0527 47.9666 63.0707 48.7858C63.0887 49.6322 62.4654 50.1662 61.4403 50.168C59.1972 50.1717 56.9524 50.168 54.7093 50.168H54.7075Z" fill="black"/>
<path d="M54.7219 56.7071C52.4789 56.7071 50.234 56.7089 47.991 56.7071C46.9605 56.7071 46.3425 56.1767 46.3587 55.3266C46.3749 54.5129 46.9947 53.9861 47.9748 53.9861C52.4843 53.9825 56.9938 53.9825 61.505 53.9861C62.3878 53.9861 62.9608 54.4384 63.0617 55.1741C63.1499 55.8098 62.7446 56.4655 62.1176 56.6417C61.8852 56.7071 61.6294 56.7053 61.3843 56.7053C59.1629 56.7089 56.9415 56.7071 54.7201 56.7071H54.7219Z" fill="black"/>
</svg>
